<svg xmlns="http://www.w3.org/2000/svg" width="1200" height="630" viewBox="0 0 1200 630" role="img" aria-label="ResuPro">
  <defs>
    <linearGradient id="bg" x1="0" y1="0" x2="1" y2="1">
      <stop offset="0" stop-color="#ffffff"/>
      <stop offset="1" stop-color="#ffffff"/>
    </linearGradient>
    <linearGradient id="mark" x1="0" y1="0" x2="1" y2="1">
      <stop offset="0" stop-color="#b91c1c"/>
      <stop offset="1" stop-color="#1d4ed8"/>
    </linearGradient>
  </defs>
  <rect width="1200" height="630" fill="url(#bg)"/>
  <g opacity="0.10" transform="translate(292,315)">
    <rect x="-204" y="-235" width="1040" height="470" rx="28" fill="none" stroke="#000000" stroke-width="2"/>
  </g>
  <g>
    <rect x="88" y="241" width="148" height="148" rx="33" fill="url(#mark)"/>
    <g transform="translate(125 278) scale(2.3125)">
      <polygon points="18,6 38,6 46,15 46,58 18,58" fill="rgb(255, 255, 255)"/><polygon points="38,6 46,15 38,15" fill="rgb(62, 31, 71)"/><line x1="24" y1="28" x2="38" y2="28" stroke="rgb(62, 31, 71)" stroke-width="3" stroke-linecap="round"/><line x1="24" y1="37" x2="38" y2="37" stroke="rgb(62, 31, 71)" stroke-width="3" stroke-linecap="round"/><polygon points="24,44 36,44 33,40 33,48 31,46" fill="rgb(255, 255, 255)"/><polygon points="38,48 42,48 42,52 38,52" fill="rgb(255, 255, 255)"/>
    </g>
    
  </g>
  <text x="292" y="290" font-family="Helvetica Neue, Inter, system-ui, sans-serif"
        font-size="72" font-weight="800" fill="#000000">ResuPro</text>
  <rect x="292" y="308" width="92" height="5" rx="2.5" fill="#2563eb"/>
  <text x="292" y="352" font-family="Helvetica Neue, Inter, system-ui, sans-serif"
        font-size="30" fill="#4b5563">Resumes that get shortlisted.</text>
</svg>
