<svg xmlns="http://www.w3.org/2000/svg" viewBox="0 0 800 800" fill="none"><defs></defs><rect x="0" y="0" width="800" height="800" rx="0" fill="#ffffff" /><path d="M 0 4 L 800 4" fill="none" stroke="#d1d5db" stroke-width="2" opacity="0.35"/><path d="M 0 63 L 800 63" fill="none" stroke="#d1d5db" stroke-width="2" opacity="0.35"/><path d="M 0 118 L 800 118" fill="none" stroke="#d1d5db" stroke-width="2" opacity="0.35"/><path d="M 0 169 L 800 169" fill="none" stroke="#d1d5db" stroke-width="2" opacity="0.35"/><path d="M 0 231 L 800 231" fill="none" stroke="#d1d5db" stroke-width="2" opacity="0.35"/><path d="M 0 282 L 800 282" fill="none" stroke="#d1d5db" stroke-width="2" opacity="0.35"/><path d="M 0 336 L 800 336" fill="none" stroke="#d1d5db" stroke-width="2" opacity="0.35"/><path d="M 0 394 L 800 394" fill="none" stroke="#d1d5db" stroke-width="2" opacity="0.35"/><path d="M 0 450 L 800 450" fill="none" stroke="#d1d5db" stroke-width="2" opacity="0.35"/><path d="M 0 508 L 800 508" fill="none" stroke="#d1d5db" stroke-width="2" opacity="0.35"/><path d="M 0 566 L 800 566" fill="none" stroke="#d1d5db" stroke-width="2" opacity="0.35"/><path d="M 0 623 L 800 623" fill="none" stroke="#d1d5db" stroke-width="2" opacity="0.35"/><path d="M 0 675 L 800 675" fill="none" stroke="#d1d5db" stroke-width="2" opacity="0.35"/><path d="M 0 731 L 800 731" fill="none" stroke="#d1d5db" stroke-width="2" opacity="0.35"/><path d="M 0 788 L 800 788" fill="none" stroke="#d1d5db" stroke-width="2" opacity="0.35"/></svg>